<?xml version="1.0" encoding="UTF-8" standalone="no"?>
<!DOCTYPE svg PUBLIC "-//W3C//DTD SVG 1.1//EN"
 "http://www.w3.org/Graphics/SVG/1.1/DTD/svg11.dtd">
<!-- Generated by graphviz version 2.43.0 (0)
 -->
<!-- Title: pipeline Pages: 1 -->
<svg width="367pt" height="305pt"
 viewBox="0.00 0.00 367.00 305.00" xmlns="http://www.w3.org/2000/svg" xmlns:xlink="http://www.w3.org/1999/xlink">
<g id="graph0" class="graph" transform="scale(1 1) rotate(0) translate(4 301)">
<title>pipeline</title>
<polygon fill="white" stroke="transparent" points="-4,4 -4,-301 363,-301 363,4 -4,4"/>
<text text-anchor="middle" x="179.5" y="-285" font-family="sans" font-size="10.00">&lt;GstPipeline&gt;</text>
<text text-anchor="middle" x="179.5" y="-274" font-family="sans" font-size="10.00">pipeline0</text>
<text text-anchor="middle" x="179.5" y="-263" font-family="sans" font-size="10.00">[0]</text>
<g id="clust1" class="cluster">
<title>cluster_appsink0_0x5587dc78a7d0</title>
<path fill="#aaaaff" stroke="black" d="M148.5,-66C148.5,-66 210.5,-66 210.5,-66 216.5,-66 222.5,-72 222.5,-78 222.5,-78 222.5,-141 222.5,-141 222.5,-147 216.5,-153 210.5,-153 210.5,-153 148.5,-153 148.5,-153 142.5,-153 136.5,-147 136.5,-141 136.5,-141 136.5,-78 136.5,-78 136.5,-72 142.5,-66 148.5,-66"/>
<text text-anchor="middle" x="179.5" y="-142.6" font-family="Bitstream Vera Sans" font-size="8.00">GstAppSink</text>
<text text-anchor="middle" x="179.5" y="-133.6" font-family="Bitstream Vera Sans" font-size="8.00">appsink0</text>
<text text-anchor="middle" x="179.5" y="-124.6" font-family="Bitstream Vera Sans" font-size="8.00">[0]</text>
</g>
<g id="clust2" class="cluster">
<title>cluster_appsink0_0x5587dc78a7d0_sink</title>
</g>
<g id="clust3" class="cluster">
<title>cluster_libcamerasrc0_0x5587dc783000</title>
<path fill="#ffaaaa" stroke="black" d="M148.5,-161C148.5,-161 210.5,-161 210.5,-161 216.5,-161 222.5,-167 222.5,-173 222.5,-173 222.5,-236 222.5,-236 222.5,-242 216.5,-248 210.5,-248 210.5,-248 148.5,-248 148.5,-248 142.5,-248 136.5,-242 136.5,-236 136.5,-236 136.5,-173 136.5,-173 136.5,-167 142.5,-161 148.5,-161"/>
<text text-anchor="middle" x="179.5" y="-237.6" font-family="Bitstream Vera Sans" font-size="8.00">GstLibcameraSrc</text>
<text text-anchor="middle" x="179.5" y="-228.6" font-family="Bitstream Vera Sans" font-size="8.00">libcamerasrc0</text>
<text text-anchor="middle" x="179.5" y="-219.6" font-family="Bitstream Vera Sans" font-size="8.00">[0]</text>
</g>
<g id="clust4" class="cluster">
<title>cluster_libcamerasrc0_0x5587dc783000_src</title>
</g>
<!-- legend -->
<g id="node1" class="node">
<title>legend</title>
<polygon fill="lightgrey" stroke="black" points="359,-58 0,-58 0,0 359,0 359,-58"/>
<text text-anchor="start" x="4" y="-46.8" font-family="sans" font-size="9.00">Legend</text>
<text text-anchor="start" x="4" y="-36.8" font-family="sans" font-size="9.00">Element&#45;States: [~] void&#45;pending, [0] null, [&#45;] ready, [=] paused, [&gt;] playing</text>
<text text-anchor="start" x="4" y="-26.8" font-family="sans" font-size="9.00">Pad&#45;Activation: [&#45;] none, [&gt;] push, [&lt;] pull</text>
<text text-anchor="start" x="4" y="-16.8" font-family="sans" font-size="9.00">Pad&#45;Flags: [b]locked, [f]lushing, [b]locking, [E]OS; upper&#45;case is set</text>
<text text-anchor="start" x="4" y="-6.8" font-family="sans" font-size="9.00">Pad&#45;Task: [T] has started task, [t] has paused task</text>
</g>
<!-- appsink0_0x5587dc78a7d0_sink_0x5587dc78c170 -->
<g id="node2" class="node">
<title>appsink0_0x5587dc78a7d0_sink_0x5587dc78c170</title>
<polygon fill="#aaaaff" stroke="black" points="206.5,-102 152.5,-102 152.5,-82 206.5,-82 206.5,-102"/>
<text text-anchor="middle" x="179.5" y="-94.8" font-family="sans" font-size="9.00">sink</text>
<text text-anchor="middle" x="179.5" y="-84.8" font-family="sans" font-size="9.00">[&#45;][bFb]</text>
</g>
<!-- libcamerasrc0_0x5587dc783000_src_0x5587dc786060 -->
<g id="node3" class="node">
<title>libcamerasrc0_0x5587dc783000_src_0x5587dc786060</title>
<polygon fill="#ffaaaa" stroke="black" points="206.5,-197 152.5,-197 152.5,-177 206.5,-177 206.5,-197"/>
<text text-anchor="middle" x="179.5" y="-189.8" font-family="sans" font-size="9.00">src</text>
<text text-anchor="middle" x="179.5" y="-179.8" font-family="sans" font-size="9.00">[&#45;][bFb]</text>
</g>
</g>
</svg>
